<?xml version="1.0" encoding="UTF-8"?>
<svg id="Layer_2" xmlns="http://www.w3.org/2000/svg" xmlns:xlink="http://www.w3.org/1999/xlink" viewBox="0 0 229.59 229.59">
  <defs>
    <style>
      .cls-1 {
        fill: url(#linear-gradient-2);
      }

      .cls-2, .cls-3 {
        fill: #fff;
      }

      .cls-3 {
        stroke: url(#linear-gradient);
        stroke-miterlimit: 10;
        stroke-width: 3.61px;
      }
    </style>
    <linearGradient id="linear-gradient" x1="16.56" y1="114.8" x2="213.03" y2="114.8" gradientUnits="userSpaceOnUse">
      <stop offset="0" stop-color="#20419a"/>
      <stop offset=".22" stop-color="#20419a"/>
      <stop offset=".98" stop-color="#23215d"/>
      <stop offset="1" stop-color="#23215d"/>
    </linearGradient>
    <linearGradient id="linear-gradient-2" x1="53.19" y1="114.79" x2="176.4" y2="114.79" xlink:href="#linear-gradient"/>
  </defs>
  <g id="Layer_1-2" data-name="Layer_1">
    <rect class="cls-2" width="229.59" height="229.59"/>
    <rect class="cls-3" x="18.37" y="18.37" width="192.85" height="192.85"/>
    <path class="cls-1" d="M121.34,43.23l-13.83.06.16-9.69,13.64.21.03,9.42ZM149.37,65.07v8.28l9.69.35.07,19.97-17.04-.02v-51.44l16.98-.08.06,12.39,13.22.26c0-9.98,2.18-19.37-4.79-20.93-3.45-.77-24.71-.46-29.81-.35-12.11.26-8.84,8.4-8.84,17.2,0,5.94-.81,46.5.85,48.94,2.87,4.22,20.38,2.62,27,2.63,19.35.01,15.59,1.21,15.59-37.25l-22.98.05ZM126.04,106.44l.03,8.94,19.52.03v80.83l13.65-.28v-80.55l17.14-.04.02-9.1-50.36.17ZM120.62,47.53l-12.84-.02-.26,2.04v146.68h13.44l.07-146.68-.41-2.02ZM85.74,136.67v25.3l-18.56.03-.02-25.26-13.67-.06c-.19,11.75-.62,49.89.1,59.46l13.58-.24v-24.31s18.56.03,18.56.03l.16,24.51,13.64-.18.03-59.23-13.82-.05ZM99.69,121.96h-32.51s.11-33.94.11-33.94h28.95s-.1-8.91-.1-8.91l-28.96-.04c0-5.79-.92-32.71.56-36.08h31.85v-9.1h-46.14v97.21h46.47l-.23-9.14Z"/>
  </g>
</svg>